<?xml version="1.0" encoding="utf-8"?>
<!-- Generator: Adobe Illustrator 21.1.0, SVG Export Plug-In . SVG Version: 6.00 Build 0)  -->
<svg version="1.1" id="Capa_1" xmlns="http://www.w3.org/2000/svg" xmlns:xlink="http://www.w3.org/1999/xlink" x="0px" y="0px"
	 viewBox="0 0 100 100" style="enable-background:new 0 0 100 100;" xml:space="preserve">
<style type="text/css">
	.st0{fill:#FFFFFF;}
	.st1{fill:#00BC9B;}
</style>
<g>
	<g>
		<g>
			<path class="st0" d="M29,85.5c0,0-0.1,0-0.1-0.1c-0.2-0.2-0.3-0.5-0.1-0.8l21.7-27.9l-2.6-4.5c-0.1-0.2-0.1-0.5,0.1-0.6
				c0.2-0.2,0.4-0.2,0.6-0.1l4.6,1.8l10.6-13.6l-3.4-6.6c-0.1-0.2-0.1-0.5,0.1-0.6c0.2-0.2,0.4-0.2,0.6-0.1l6.5,2.5l7.7-9.9L62,2.4
				c-0.2-0.3-0.1-0.6,0.2-0.8c0.3-0.2,0.6-0.1,0.8,0.2l13.5,22.6c0.1,0.2,0.1,0.4,0,0.6l-8.2,10.5c-0.2,0.2-0.4,0.3-0.6,0.2
				l-5.5-2.1l2.9,5.6c0.1,0.2,0.1,0.4-0.1,0.6L53.9,54.1c-0.2,0.2-0.4,0.3-0.6,0.2l-3.6-1.3l1.9,3.6c0.1,0.2,0.1,0.4-0.1,0.6
				L29.6,85.4C29.4,85.6,29.2,85.6,29,85.5z"/>
		</g>
	</g>
	<g>
		<path class="st1" d="M30,82.8l3.7-33.3l0.4-3.6L36,29l0.5-5l1.2-11.6c0.1-0.5,0.4-0.9,0.9-1l21.6-6.1c0.4-0.1,0.8,0.3,0.6,0.7
			L30,82.8z"/>
	</g>
	<g>
		<g>
			<path class="st0" d="M29,85.5c-0.2-0.1-0.4-0.4-0.3-0.6l14.9-64.5c0.1-0.3,0.4-0.5,0.7-0.4s0.5,0.4,0.4,0.7l-15,64.4
				C29.6,85.4,29.3,85.6,29,85.5L29,85.5z"/>
		</g>
	</g>
	<g>
		<g>
			<path class="st0" d="M29,85.5c-0.2-0.1-0.3-0.3-0.3-0.5V33.3c0-0.3,0.2-0.6,0.6-0.6c0.3,0,0.6,0.2,0.6,0.6V85
				c0,0.3-0.2,0.6-0.6,0.6C29.1,85.6,29,85.6,29,85.5z"/>
		</g>
	</g>
	<g>
		<g>
			<path class="st0" d="M29,85.5c-0.2-0.1-0.3-0.2-0.3-0.4l-4.4-24.2c-0.1-0.3,0.1-0.6,0.4-0.6c0.3-0.1,0.6,0.1,0.6,0.4l4.4,24.2
				c0.1,0.3-0.1,0.6-0.4,0.6C29.2,85.6,29,85.6,29,85.5z"/>
		</g>
	</g>
	<g>
		<g>
			<path class="st0" d="M23.7,98.5c-0.3-0.1-0.4-0.4-0.3-0.7l5.3-12.9c0.1-0.3,0.4-0.4,0.7-0.3c0.3,0.1,0.4,0.4,0.3,0.7l-5.3,12.9
				C24.3,98.4,24,98.6,23.7,98.5z"/>
		</g>
	</g>
</g>
</svg>
