<?xml version="1.0" encoding="utf-8"?>
<!-- Generator: Adobe Illustrator 21.1.0, SVG Export Plug-In . SVG Version: 6.00 Build 0)  -->
<svg version="1.1" id="Capa_1" xmlns="http://www.w3.org/2000/svg" xmlns:xlink="http://www.w3.org/1999/xlink" x="0px" y="0px"
	 viewBox="0 0 100 100" style="enable-background:new 0 0 100 100;" xml:space="preserve">
<style type="text/css">
	.st0{fill:url(#SVGID_1_);}
</style>
<linearGradient id="SVGID_1_" gradientUnits="userSpaceOnUse" x1="10" y1="50" x2="90" y2="50">
	<stop  offset="0" style="stop-color:#23475F"/>
	<stop  offset="1" style="stop-color:#00BC9B"/>
</linearGradient>
<path class="st0" d="M76.7,39.3c3.7,0,7,1.5,9.4,3.9c2.4,2.4,3.9,5.7,3.9,9.4c0,3.7-1.5,7-3.9,9.4c-2.4,2.4-5.7,3.9-9.4,3.9
	c-3.7,0-7-1.5-9.4-3.9c-0.1-0.1-0.3-0.3-0.4-0.4L35.9,80.2c0.5,1.4,0.8,2.9,0.8,4.4c0,3.7-1.5,7-3.9,9.4C30.3,96.5,27,98,23.3,98
	c-3.7,0-7-1.5-9.4-3.9c-2.4-2.4-3.9-5.8-3.9-9.4c0-3.7,1.5-7,3.9-9.4c2.4-2.4,5.8-3.9,9.4-3.9c3.7,0,7,1.5,9.4,3.9l0.4,0.4
	l30.9-18.6c-0.5-1.4-0.8-2.9-0.8-4.4c0-1.9,0.4-3.7,1.1-5.3L32.5,25c-2.4,2.3-5.6,3.7-9.2,3.7c-3.7,0-7-1.5-9.4-3.9
	C11.5,22.3,10,19,10,15.3c0-3.7,1.5-7,3.9-9.4C16.3,3.5,19.7,2,23.3,2c3.7,0,7,1.5,9.4,3.9s3.9,5.7,3.9,9.4c0,1.9-0.4,3.7-1.1,5.3
	L67.5,43C69.9,40.7,73.1,39.3,76.7,39.3L76.7,39.3z M29,79c-1.4-1.4-3.4-2.3-5.7-2.3c-2.2,0-4.2,0.9-5.7,2.3
	c-1.4,1.5-2.3,3.5-2.3,5.7c0,2.2,0.9,4.2,2.3,5.7c1.4,1.5,3.5,2.3,5.7,2.3c2.2,0,4.2-0.9,5.7-2.3c1.4-1.4,2.3-3.4,2.3-5.7
	C31.3,82.5,30.4,80.5,29,79L29,79z M29,9.7c-1.4-1.4-3.4-2.3-5.7-2.3c-2.2,0-4.2,0.9-5.7,2.3c-1.4,1.5-2.3,3.5-2.3,5.7
	c0,2.2,0.9,4.2,2.3,5.7c1.4,1.5,3.5,2.3,5.7,2.3c2.2,0,4.2-0.9,5.7-2.3c1.4-1.4,2.3-3.4,2.3-5.7C31.3,13.1,30.4,11.1,29,9.7L29,9.7z
	 M82.3,47c-1.4-1.4-3.4-2.3-5.7-2.3c-2.2,0-4.2,0.9-5.7,2.3c-1.4,1.5-2.3,3.5-2.3,5.7c0,2.2,0.9,4.2,2.3,5.7
	c1.4,1.5,3.5,2.3,5.7,2.3c2.2,0,4.2-0.9,5.7-2.3c1.5-1.4,2.3-3.4,2.3-5.7C84.7,50.5,83.8,48.5,82.3,47L82.3,47z"/>
</svg>
