<?xml version="1.0" encoding="utf-8"?>
<!-- Generator: Adobe Illustrator 21.1.0, SVG Export Plug-In . SVG Version: 6.00 Build 0)  -->
<svg version="1.1" id="Capa_1" xmlns="http://www.w3.org/2000/svg" xmlns:xlink="http://www.w3.org/1999/xlink" x="0px" y="0px"
	 viewBox="0 0 100 100" style="enable-background:new 0 0 100 100;" xml:space="preserve">
<style type="text/css">
	.st0{fill:#00BC9B;}
	.st1{fill:#23475F;}
</style>
<g>
	<polygon class="st0" points="19.4,66.4 63.4,30.7 38.9,67.8 35.7,97.8 	"/>
	<g>
		<g>
			<path class="st1" d="M69.5,76.9c-1,0-1.9-0.2-2.8-0.5l-26-9.9c-0.6-0.2-1-0.7-1.2-1.3c-0.2-0.6-0.1-1.3,0.3-1.8l18.2-26.7
				l-31.1,24c-0.6,0.4-1.3,0.5-1.9,0.3l-10.6-3.7c-2.9-1-5-3.6-5.3-6.7c-0.3-3.1,1.2-6,3.8-7.6l66-39.6c1.3-0.8,2.7-1.2,4.1-1.2
				c2.4,0,4.8,1.1,6.3,3.1c1.5,1.9,2.1,4.3,1.5,6.7L77.3,70.8C76.4,74.4,73.2,76.9,69.5,76.9z M44.5,63.6l23.6,8.9
				c0.4,0.2,0.9,0.3,1.4,0.3c1.8,0,3.4-1.2,3.8-3l13.5-58.7c0.3-1.2,0-2.3-0.7-3.3c-1.2-1.5-3.3-2-5-0.9L15,46.5
				c-1.3,0.8-2,2.2-1.9,3.7c0.2,1.5,1.1,2.7,2.6,3.3l9.5,3.3l40.4-31.2c0.8-0.6,1.9-0.6,2.7,0.1c0.7,0.7,0.9,1.8,0.3,2.6L44.5,63.6z
				"/>
		</g>
		<g>
			<path class="st1" d="M38.6,88.9c-0.8,0-1.5-0.5-1.9-1.2L23.7,60c-0.4-0.9-0.2-1.9,0.6-2.5l41.3-31.9c0.8-0.6,1.9-0.6,2.7,0.1
				c0.7,0.7,0.9,1.8,0.3,2.6l-25.3,37l-2.7,21.7c-0.1,0.9-0.8,1.6-1.7,1.8C38.8,88.9,38.7,88.9,38.6,88.9z M28.1,59.8l9.3,19.8
				l1.9-15.2c0-0.3,0.2-0.6,0.3-0.9l18.2-26.7L28.1,59.8z"/>
		</g>
	</g>
	<g>
		<path class="st1" d="M38.6,88.9c-0.3,0-0.5-0.1-0.8-0.2c-0.8-0.4-1.4-1.2-1.2-2.1l2.8-22.2c0.1-0.6,0.4-1.2,1-1.5
			c0.5-0.3,1.2-0.4,1.8-0.2L53.5,67c0.6,0.2,1.1,0.7,1.3,1.4c0.2,0.6,0,1.3-0.4,1.8L40.2,88.1C39.8,88.6,39.2,88.9,38.6,88.9z
			 M43.1,67.5l-1.6,12.3l7.9-9.9L43.1,67.5z"/>
	</g>
</g>
</svg>
