<?xml version="1.0" encoding="utf-8"?>
<!-- Generator: Adobe Illustrator 21.1.0, SVG Export Plug-In . SVG Version: 6.00 Build 0)  -->
<svg version="1.1" id="Capa_1" xmlns="http://www.w3.org/2000/svg" xmlns:xlink="http://www.w3.org/1999/xlink" x="0px" y="0px"
	 viewBox="0 0 100 100" style="enable-background:new 0 0 100 100;" xml:space="preserve">
<style type="text/css">
	.st0{fill:#00BC9B;}
	.st1{fill:#FFFFFF;}
</style>
<g>
	<polygon class="st0" points="18.6,66.8 63.8,30.3 38.6,68.3 35.3,98.9 	"/>
	<g>
		<g>
			<g>
				<path class="st1" d="M70,77.6c-1,0-2-0.2-2.9-0.5L40.4,67c-0.6-0.2-1.1-0.7-1.3-1.3c-0.2-0.6-0.1-1.3,0.3-1.8l18.7-27.3L26.3,61
					c-0.6,0.4-1.3,0.6-2,0.3l-10.8-3.8c-3-1.1-5.1-3.7-5.4-6.9c-0.3-3.2,1.2-6.2,3.9-7.8L79.6,2.3c1.3-0.8,2.7-1.2,4.2-1.2
					c2.5,0,4.9,1.2,6.4,3.1c1.5,1.9,2.1,4.4,1.5,6.9L77.9,71.3C77.1,75,73.8,77.6,70,77.6z M44.4,64l24.2,9.2
					c0.5,0.2,0.9,0.3,1.4,0.3c1.9,0,3.4-1.3,3.9-3.1l13.9-60.2C88,9,87.7,7.8,87,6.8c-1.2-1.5-3.4-2-5.2-1L14.1,46.4
					c-1.4,0.8-2.1,2.2-1.9,3.8c0.2,1.6,1.1,2.8,2.6,3.3l9.7,3.4L66,25c0.8-0.6,2-0.6,2.7,0.1c0.8,0.7,0.9,1.9,0.3,2.7L44.4,64z"/>
			</g>
			<g>
				<path class="st1" d="M38.3,89.8c-0.8,0-1.6-0.5-1.9-1.2L23.1,60.3c-0.4-0.9-0.2-2,0.6-2.6L66,25c0.8-0.6,2-0.6,2.7,0.1
					c0.8,0.7,0.9,1.9,0.3,2.7L43.2,65.8L40.4,88c-0.1,0.9-0.8,1.7-1.8,1.8C38.5,89.8,38.4,89.8,38.3,89.8z M27.6,60l9.5,20.3l2-15.5
					c0-0.3,0.2-0.6,0.4-0.9l18.7-27.3L27.6,60z"/>
			</g>
		</g>
	</g>
	<g>
		<g>
			<path class="st1" d="M38.3,89.8c-0.3,0-0.6-0.1-0.8-0.2c-0.9-0.4-1.4-1.3-1.3-2.2l2.9-22.7c0.1-0.6,0.5-1.2,1-1.5
				c0.6-0.3,1.2-0.4,1.8-0.2l11.7,4.4c0.6,0.2,1.1,0.8,1.3,1.4c0.2,0.6,0,1.3-0.4,1.9L39.9,89C39.5,89.5,38.9,89.8,38.3,89.8z
				 M42.9,67.9l-1.6,12.6l8.1-10.2L42.9,67.9z"/>
		</g>
	</g>
</g>
</svg>
