<?xml version="1.0" encoding="utf-8"?>
<!-- Generator: Adobe Illustrator 21.1.0, SVG Export Plug-In . SVG Version: 6.00 Build 0)  -->
<svg version="1.1" id="Capa_1" xmlns="http://www.w3.org/2000/svg" xmlns:xlink="http://www.w3.org/1999/xlink" x="0px" y="0px"
	 viewBox="0 0 100 100" style="enable-background:new 0 0 100 100;" xml:space="preserve">
<style type="text/css">
	.st0{fill:url(#SVGID_1_);}
</style>
<linearGradient id="SVGID_1_" gradientUnits="userSpaceOnUse" x1="2" y1="50" x2="98" y2="50">
	<stop  offset="0" style="stop-color:#23475F"/>
	<stop  offset="1" style="stop-color:#00BC9B"/>
</linearGradient>
<path class="st0" d="M42.7,16.5c3,0,6,0.3,8.9,1c2.2,0.5,4.3,1.2,6.4,2c0.6,0.2,1,0.6,1.2,1.2c0.2,0.6,0.2,1.2-0.1,1.7L59,22.8
	c-0.5,1-1.7,1.5-2.8,1.1c-1.8-0.7-3.7-1.3-5.6-1.8c-2.5-0.6-5.2-0.9-7.9-0.9c-9.9,0-18.9,4-25.4,10.5C10.8,38.3,6.8,47.3,6.8,57.3
	s4,18.9,10.5,25.4c6.5,6.5,15.5,10.5,25.4,10.5c9.9,0,18.9-4,25.4-10.5c6.5-6.5,10.5-15.5,10.5-25.4c0-2.7-0.3-5.4-0.9-7.9
	c-0.4-1.9-1-3.8-1.8-5.6c-0.4-1.1,0-2.3,1.1-2.8l0.4-0.2c0.6-0.3,1.1-0.3,1.7-0.1c0.6,0.2,1,0.6,1.2,1.2c0.8,2.1,1.5,4.2,2,6.4
	c0.7,2.9,1,5.9,1,9c0,11.2-4.6,21.4-11.9,28.8C64.2,93.4,54,98,42.7,98s-21.4-4.6-28.8-11.9C6.6,78.7,2,68.5,2,57.3
	C2,46,6.6,35.8,13.9,28.5C21.3,21.1,31.5,16.5,42.7,16.5L42.7,16.5z M64.3,32.3V18.9v-1l0.7-0.7L79.4,2.9l0.2-0.2
	c0.5-0.5,1.2-0.7,1.9-0.6c0.7,0.1,1.3,0.5,1.6,1.2l0.1,0.3l4.4,8.9l8.9,4.4l0.3,0.1c0.6,0.3,1.1,0.9,1.2,1.6
	c0.1,0.7-0.1,1.4-0.6,1.9l-0.2,0.2L82.8,35l-0.7,0.7l-1,0l-13.4,0L46,57.4C45.5,57.8,45,58,44.4,58c-0.6,0-1.1-0.2-1.5-0.6l-0.3-0.3
	c-0.8-0.8-0.8-2.2,0-3.1L64.3,32.3L64.3,32.3z M69.1,19.9v11l11,0l11.3-11.3l-6.6-3.3l-0.7-0.4l-0.4-0.7l-3.3-6.6L69.1,19.9
	L69.1,19.9z M54.3,60.2c-0.5,2.2-1.7,4.1-3.3,5.6c-2.2,2.1-5.1,3.4-8.4,3.4c-3.3,0-6.3-1.3-8.5-3.5c-2.2-2.2-3.5-5.2-3.5-8.5
	c0-3.3,1.3-6.2,3.4-8.4c1.5-1.6,3.5-2.7,5.6-3.2c0.7-0.2,1.3,0,1.8,0.4c0.5,0.4,0.8,1,0.9,1.7l0,0.4c0,1-0.6,1.9-1.6,2.1
	c-1.3,0.3-2.4,1-3.3,1.9c-1.3,1.3-2,3.1-2,5c0,2,0.8,3.8,2.1,5.1c1.3,1.3,3.1,2.1,5.1,2.1c2,0,3.7-0.8,5-2c0.9-0.9,1.6-2,1.9-3.3
	c0.3-1,1.1-1.6,2.2-1.6l0.4,0c0.7,0,1.3,0.3,1.7,0.9C54.4,58.9,54.5,59.5,54.3,60.2L54.3,60.2z M42.7,30.9c2.1,0,4.1,0.2,6.1,0.7
	c1.2,0.3,2.4,0.7,3.6,1.1c0.6,0.2,1,0.7,1.2,1.2c0.2,0.6,0.2,1.2-0.1,1.7l-0.2,0.4c-0.5,1-1.7,1.5-2.7,1c-0.9-0.4-1.9-0.7-2.9-0.9
	c-1.6-0.4-3.3-0.6-5-0.6c-6,0-11.3,2.4-15.2,6.3c-3.9,3.9-6.3,9.3-6.3,15.3s2.4,11.4,6.3,15.3c3.9,3.9,9.3,6.3,15.2,6.3
	c6,0,11.3-2.4,15.2-6.3c3.9-3.9,6.3-9.3,6.3-15.3c0-1.7-0.2-3.4-0.6-5c-0.2-1-0.5-2-0.9-2.9c-0.4-1,0-2.2,1-2.7l0.4-0.2
	c0.6-0.3,1.2-0.3,1.8-0.1c0.6,0.2,1,0.6,1.2,1.2c0.5,1.2,0.8,2.4,1.1,3.6c0.5,2,0.7,4,0.7,6.1c0,7.3-3,13.9-7.7,18.6
	c-4.8,4.8-11.4,7.7-18.6,7.7c-7.3,0-13.9-3-18.6-7.7c-4.8-4.8-7.7-11.4-7.7-18.6s3-13.9,7.7-18.6C28.9,33.8,35.5,30.9,42.7,30.9
	L42.7,30.9z"/>
</svg>
