<?xml version="1.0" encoding="utf-8"?>
<!-- Generator: Adobe Illustrator 17.0.0, SVG Export Plug-In . SVG Version: 6.00 Build 0)  -->
<!DOCTYPE svg PUBLIC "-//W3C//DTD SVG 1.1//EN" "http://www.w3.org/Graphics/SVG/1.1/DTD/svg11.dtd">
<svg version="1.1" id="hi-there" onclick="hi.reset().play();" xmlns="http://www.w3.org/2000/svg" xmlns:xlink="http://www.w3.org/1999/xlink" x="0px" y="0px"
	 width="100px" height="100px" viewBox="550 400 100 100" enable-background="new 550 400 100 100" xml:space="preserve">
<path fill="none" stroke="#00BC9B" stroke-width="1.0384" stroke-miterlimit="10" d="M640.912,446.047
	c-1.383-12.451-8.499-23.717-19.171-30.338c-6.522-4.052-14.033-6.226-21.741-6.226c-21.049,0-38.639,16.108-41.011,36.564
	c-4.348,2.075-7.412,6.621-7.412,11.76c0,7.214,5.83,13.044,12.946,13.044c0.395,0,0.791,0,1.186-0.099
	c6.917,11.76,19.665,19.764,34.291,19.764s27.373-7.906,34.291-19.665c0.395,0,0.791,0.099,1.186,0.099
	c7.115,0,12.946-5.83,12.946-13.044C648.422,452.569,645.359,448.122,640.912,446.047z"/>
<path fill="none" stroke="#00BC9B" stroke-width="1.0384" stroke-miterlimit="10" d="M558.792,449.704c0,0.198,0,0.296,0,0.494
	c0,0.889,0.296,1.68,0.988,2.273c0.198,0.198,0.395,0.296,0.593,0.395v-0.099v0.099c0.494,0.296,0.099,0.593,0.593,0.593"/>
<path fill="none" stroke="#00BC9B" stroke-width="1.0384" stroke-miterlimit="10" d="M560.373,452.965
	c0.297,5.237,1.581,10.277,3.755,14.823c-5.237-0.296-9.487-4.645-9.487-9.981c0-3.36,1.68-6.226,4.15-8.103"/>
<path fill="none" stroke="#00BC9B" stroke-width="1.0384" stroke-miterlimit="10" d="M632.71,467.392
	c-0.198,0.494-0.494,0.889-0.692,1.383c-0.297,0.494-0.494,0.889-0.791,1.285c-6.522,10.475-18.084,17.392-31.227,17.392
	c-13.143,0-24.705-6.917-31.129-17.392c-0.296-0.395-0.494-0.889-0.791-1.285c-0.297-0.494-0.494-0.889-0.692-1.383
	c-2.174-4.348-3.558-9.092-3.953-14.23c3.063-0.296,6.127-0.791,8.993-1.383c0.593-0.099,1.087-0.198,1.68-0.296
	c0.494-0.099,1.087-0.198,1.581-0.395c16.997-4.15,30.437-12.451,35.575-17.985c3.36,4.447,9.289,10.376,16.503,14.23
	c0.494,0.296,0.988,0.494,1.482,0.791c0.593,0.296,1.186,0.494,1.779,0.791c1.779,0.791,3.755,1.383,5.633,1.779v0.099
	C636.662,456.72,635.18,462.353,632.71,467.392z"/>
<path fill="none" stroke="#00BC9B" stroke-width="1.0384" stroke-miterlimit="10" d="M635.872,467.788
	c2.471-5.139,3.854-10.87,3.854-16.997c0-0.099,0-0.296,0-0.395c0.099-0.099,0.296-0.198,0.395-0.296
	c0.198-0.198,0.395-0.494,0.593-0.692c2.767,1.779,4.645,4.842,4.645,8.4C645.359,463.143,641.208,467.491,635.872,467.788z"/>
<path fill="none" stroke="#00BC9B" stroke-width="1.0384" stroke-miterlimit="10" d="M580.137,452.273
	c-1.285,0-2.471,0.593-3.261,1.383c-0.494,0.494-0.889,1.186-1.087,1.878c-0.099,0.494-0.198,0.889-0.198,1.383
	c0,0.692,0.099,1.285,0.395,1.878c0.296,0.692,0.692,1.285,1.285,1.68c0.791,0.692,1.779,1.087,2.965,1.087
	c2.569,0,4.546-2.075,4.546-4.743C584.782,454.447,582.706,452.273,580.137,452.273z"/>
<path fill="none" stroke="#00BC9B" stroke-width="1.0384" stroke-miterlimit="10" d="M623.124,453.755
	c-0.791-0.889-1.976-1.383-3.261-1.383c-2.569,0-4.546,2.075-4.546,4.743c0,2.569,2.075,4.743,4.546,4.743
	c1.087,0,2.174-0.395,2.965-1.087c0.494-0.494,0.988-1.087,1.285-1.68c0.198-0.593,0.395-1.186,0.395-1.878
	c0-0.494-0.099-0.988-0.198-1.383C624.013,454.941,623.618,454.249,623.124,453.755z"/>
<path fill="none" stroke="#00BC9B" stroke-width="1.0384" stroke-miterlimit="10" d="M608.004,470.159
	c-0.791-0.198-1.68,0.296-1.878,1.186c0,0.198-0.988,4.15-6.127,4.15c-4.842,0-6.028-3.755-6.226-4.15
	c-0.198-0.692-0.791-1.186-1.482-1.186c-0.099,0-0.296,0-0.395,0.099c-0.791,0.198-1.285,1.087-1.087,1.878
	c0.593,2.174,3.261,6.423,9.091,6.423c6.028,0,8.597-4.249,9.19-6.522C609.388,471.246,608.795,470.357,608.004,470.159z"/>
</svg>
