<?xml version="1.0" encoding="utf-8"?>
<!-- Generator: Adobe Illustrator 21.1.0, SVG Export Plug-In . SVG Version: 6.00 Build 0)  -->
<svg version="1.1" id="Capa_1" xmlns="http://www.w3.org/2000/svg" xmlns:xlink="http://www.w3.org/1999/xlink" x="0px" y="0px"
	 viewBox="0 0 100 100" style="enable-background:new 0 0 100 100;" xml:space="preserve">
<style type="text/css">
	.st0{fill:#23475F;}
</style>
<g id="XMLID_679_">
	<path id="XMLID_685_" class="st0" d="M37.6,77.7c2.5-0.5,4.7-1.5,6.6-2.9c1.7-1.2,3-2.8,4.1-4.6c1.7-2.7,2.6-5.8,2.6-9.3
		c0-3.4-0.8-6.2-2.3-8.6c-1.5-2.3-3.8-4.1-6.7-5.2c2-1,3.4-2.1,4.5-3.3c1.8-2.2,2.7-5,2.7-8.6c0-3.5-0.9-6.4-2.7-8.9
		c-3-4-8-6.1-15.1-6.2H3v58.4h26.3C32.3,78.5,35,78.2,37.6,77.7z M14.6,30.2h12.7c2.8,0,5.1,0.3,6.9,0.9c2.1,0.9,3.1,2.7,3.1,5.4
		c0,2.5-0.8,4.2-2.4,5.1c-1.6,1-3.6,1.4-6.2,1.4H14.6V30.2z M14.6,68.3V52.8H29c2.5,0,4.5,0.4,5.8,1c2.5,1.1,3.7,3.2,3.7,6.3
		c0,3.6-1.3,6-3.8,7.3c-1.4,0.7-3.4,1-5.9,1H14.6z"/>
	<g id="XMLID_680_">
		<path id="XMLID_682_" class="st0" d="M60.8,74.6c4.4,3.5,9.5,5.3,15.2,5.3c7,0,12.4-2.1,16.2-6.3c2.5-2.6,3.9-5.2,4.2-7.8H84.9
			c-0.7,1.3-1.4,2.3-2.3,3c-1.6,1.3-3.7,2-6.3,2c-2.4,0-4.5-0.5-6.2-1.6c-2.8-1.7-4.3-4.8-4.5-9.1H97c0.1-3.7-0.1-6.6-0.4-8.6
			c-0.5-3.4-1.7-6.4-3.4-8.9c-2-2.9-4.4-5-7.5-6.4c-3-1.3-6.4-2-10.2-2c-6.3,0-11.5,2-15.4,6c-4,4-5.9,9.7-5.9,17.2
			C54.2,65.3,56.4,71.1,60.8,74.6z M68.8,45.9c1.6-1.6,3.8-2.5,6.7-2.5c2.7,0,4.9,0.8,6.7,2.3c1.8,1.6,2.8,3.8,3,6.8H65.8
			C66.2,49.8,67.2,47.6,68.8,45.9z"/>
		<rect id="XMLID_681_" x="62.1" y="23.4" class="st0" width="25.4" height="5.9"/>
	</g>
</g>
</svg>
