<?xml version="1.0" encoding="utf-8"?>
<!-- Generator: Adobe Illustrator 21.1.0, SVG Export Plug-In . SVG Version: 6.00 Build 0)  -->
<svg version="1.1" id="Capa_1" xmlns="http://www.w3.org/2000/svg" xmlns:xlink="http://www.w3.org/1999/xlink" x="0px" y="0px"
	 viewBox="0 0 100 100" style="enable-background:new 0 0 100 100;" xml:space="preserve">
<style type="text/css">
	.st0{fill:url(#SVGID_1_);}
</style>
<linearGradient id="SVGID_1_" gradientUnits="userSpaceOnUse" x1="1.1217" y1="49.5701" x2="98" y2="49.5701">
	<stop  offset="0" style="stop-color:#23475F"/>
	<stop  offset="1" style="stop-color:#00BC9B"/>
</linearGradient>
<path class="st0" d="M3.3,3.2h5.4c2.2,0,4.3,0.6,6,1.8c1.7,1.1,3,2.8,3.5,4.9l12.1,49c0.2,0.8,0.8,1.5,1.5,2c0.9,0.6,2,0.9,3.2,0.9
	h41c1.2,0,2.2-0.3,3.1-0.9c0.8-0.5,1.4-1.3,1.6-2.2l12.6-40.4c0.4-1.2,1.6-1.8,2.8-1.5l0.4,0.1c0.6,0.2,1,0.5,1.3,1.1
	c0.3,0.5,0.3,1.1,0.2,1.7L85.3,60.1c-0.6,2-1.9,3.6-3.6,4.8c-1.7,1.1-3.7,1.8-5.8,1.8h-41c-2.2,0-4.3-0.6-6-1.8
	c-1.7-1.1-3-2.8-3.5-4.9L13.4,11c-0.2-0.8-0.8-1.5-1.5-2c-0.9-0.6-2-0.9-3.2-0.9H3.3c-1.2,0-2.2-1-2.2-2.2V5.4
	C1.1,4.2,2.1,3.2,3.3,3.2L3.3,3.2z M45.9,34.8l8.9,8.9V10.3c0-1.2,1-2.2,2.2-2.2h0.5c1.2,0,2.2,1,2.2,2.2v33.4l8.9-8.9
	c0.9-0.9,2.3-0.9,3.1,0l0.3,0.3c0.9,0.9,0.9,2.3,0,3.1L59,51.3l-0.2,0.2c-0.9,0.9-2.3,0.9-3.1,0l-0.2-0.2L42.4,38.2
	c-0.9-0.9-0.9-2.3,0-3.1l0.3-0.3C43.6,33.9,45,33.9,45.9,34.8L45.9,34.8z M59.9,86.2H49.7c-0.5,2.4-1.7,4.5-3.3,6.2
	c-2.2,2.2-5.3,3.6-8.6,3.6c-3.4,0-6.4-1.4-8.6-3.6c-2.2-2.2-3.6-5.3-3.6-8.6c0-3.4,1.4-6.4,3.6-8.6c2.2-2.2,5.3-3.6,8.6-3.6
	c3.4,0,6.4,1.4,8.6,3.6c1.7,1.7,2.8,3.8,3.3,6.2h10.2c0.5-2.4,1.7-4.5,3.3-6.2c2.2-2.2,5.3-3.6,8.6-3.6c3.4,0,6.4,1.4,8.6,3.6
	c2.2,2.2,3.6,5.3,3.6,8.6c0,3.4-1.4,6.4-3.6,8.6c-2.2,2.2-5.3,3.6-8.6,3.6c-3.4,0-6.4-1.4-8.6-3.6C61.6,90.7,60.4,88.6,59.9,86.2
	L59.9,86.2z M71.9,91.1c2,0,3.9-0.8,5.2-2.1c1.3-1.3,2.1-3.1,2.1-5.2c0-2-0.8-3.9-2.1-5.2c-1.3-1.3-3.2-2.1-5.2-2.1
	c-2,0-3.9,0.8-5.2,2.1c-1.3,1.3-2.1,3.2-2.1,5.2c0,2,0.8,3.9,2.1,5.2C68,90.2,69.9,91.1,71.9,91.1L71.9,91.1z M37.7,91.1
	c2,0,3.9-0.8,5.2-2.1c1.3-1.3,2.1-3.1,2.1-5.2c0-2-0.8-3.9-2.1-5.2c-1.3-1.3-3.2-2.1-5.2-2.1c-2,0-3.9,0.8-5.2,2.1
	c-1.3,1.3-2.1,3.2-2.1,5.2c0,2,0.8,3.9,2.1,5.2C33.9,90.2,35.7,91.1,37.7,91.1L37.7,91.1z"/>
</svg>
