<?xml version="1.0" encoding="utf-8"?>
<!-- Generator: Adobe Illustrator 21.1.0, SVG Export Plug-In . SVG Version: 6.00 Build 0)  -->
<svg version="1.1" id="Capa_1" xmlns="http://www.w3.org/2000/svg" xmlns:xlink="http://www.w3.org/1999/xlink" x="0px" y="0px"
	 viewBox="0 0 100 100" style="enable-background:new 0 0 100 100;" xml:space="preserve">
<style type="text/css">
	.st0{fill:url(#SVGID_1_);}
</style>
<linearGradient id="SVGID_1_" gradientUnits="userSpaceOnUse" x1="1.5527" y1="49.5913" x2="98" y2="49.5913">
	<stop  offset="0" style="stop-color:#23475F"/>
	<stop  offset="1" style="stop-color:#00BC9B"/>
</linearGradient>
<path class="st0" d="M88.4,13.2v21.9h7.5c1.2,0,2.2,1,2.2,2.2V86c0,1.2-1,2.2-2.2,2.2c-9.8,0-19.6,0-29.4,0c-1.2,0-2.2-1-2.2-2.2
	V73.7h-9.6v4.8h2.6c1.2,0,2.2,1,2.2,2.2v0.5c0,1.2-1,2.2-2.2,2.2c-8.2,0-16.4,0-24.6,0c-1.2,0-2.2-1-2.2-2.2v-0.5
	c0-1.2,1-2.2,2.2-2.2h2.6v-4.8H3.7c-1.2,0-2.2-1-2.2-2.2V13.2c0-1.2,1-2.2,2.2-2.2c27.5,0,55,0,82.4,0C87.4,11,88.4,12,88.4,13.2
	L88.4,13.2z M93.2,78.5H69.1v4.8h24.1V78.5L93.2,78.5z M69.1,73.7h24.1V39.9c-8,0-16.1,0-24.1,0V73.7L69.1,73.7z M64.2,64.1H6.4v4.8
	c19.3,0,38.6,0,57.9,0V64.1L64.2,64.1z M6.4,59.2h57.9V37.3c0-1.2,1-2.2,2.2-2.2h17.1V15.8H6.4V59.2L6.4,59.2z M49.8,73.7h-9.6v4.8
	h9.6V73.7L49.8,73.7z"/>
</svg>
