<?xml version="1.0" encoding="utf-8"?>
<!-- Generator: Adobe Illustrator 17.0.0, SVG Export Plug-In . SVG Version: 6.00 Build 0)  -->
<!DOCTYPE svg PUBLIC "-//W3C//DTD SVG 1.1//EN" "http://www.w3.org/Graphics/SVG/1.1/DTD/svg11.dtd">
<svg version="1.1" id="hi-there" onclick="hi.reset().play();" xmlns="http://www.w3.org/2000/svg" xmlns:xlink="http://www.w3.org/1999/xlink" x="0px" y="0px"
	 width="100px" height="100px" viewBox="550 400 100 100" enable-background="new 550 400 100 100" xml:space="preserve">
<path fill="none" stroke="#00BC9B" stroke-width="1.0264" stroke-miterlimit="10" d="M557.349,447.29
	c0.502-0.201,1.004-0.502,1.505-0.702"/>
<path fill="none" stroke="#00BC9B" stroke-width="1.0264" stroke-miterlimit="10" d="M561.765,446.789
	c-0.401,0.201-0.803,0.301-1.305,0.301c-0.1,0-0.1,0-0.201,0c-0.502,0-1.004-0.201-1.505-0.602
	c-0.502,0.201-1.004,0.502-1.405,0.803s-0.803,0.602-1.204,0.903c-2.91,2.409-4.817,6.021-4.817,10.136
	c0,6.724,5.018,12.243,11.541,13.046c1.907,5.419,5.018,10.036,9.132,13.849c7.025,6.423,16.96,9.935,28.099,9.935
	c18.566,0,32.013-8.932,37.232-23.784c6.423-0.803,11.34-6.322,11.34-12.946c0-4.014-1.806-7.727-4.717-10.136
	c2.107-1.706,3.512-4.315,3.512-7.125c0-3.412-1.907-6.423-4.817-8.028c0.502-1.004,0.803-1.806,0.803-3.011
	c0-3.914-3.211-6.724-7.125-6.724l0,0c0.201-1.505,0.301-1.806,0.301-2.509c0-3.412-2.81-6.724-6.222-6.724h-3.914
	c-7.326-6.122-16.559-9.333-26.795-9.333c-20.673,0-36.83,13.648-40.644,33.92c-2.509,0.602-4.416,2.91-4.416,5.62
	c0,1.505,0.602,2.81,1.505,3.814c0.401-0.301,0.803-0.602,1.204-0.903"/>
<path fill="none" stroke="#00BC9B" stroke-width="1.0264" stroke-miterlimit="10" d="M554.439,458.43
	c0-3.512,1.806-6.623,4.516-8.43c0.401,0.1,0.703,0.201,1.104,0.201c0,0.401,0,0.702,0,1.104c0,1.806,0.1,3.512,0.401,5.319l0,0
	c0,4.014,0.502,7.928,1.405,11.44C557.55,466.96,554.439,463.046,554.439,458.43z"/>
<path fill="none" stroke="#00BC9B" stroke-width="1.0264" stroke-miterlimit="10" d="M635.726,465.254
	c-0.201,1.104-0.502,2.107-0.803,3.111c-0.1,0.502-0.301,1.004-0.502,1.505c-0.201,0.502-0.401,1.004-0.502,1.505
	c-0.301,0.803-0.703,1.606-1.004,2.308c0,0.1-0.1,0.1-0.1,0.201c-1.706,3.412-3.914,6.523-6.724,9.132
	c-6.523,5.921-15.455,9.032-25.992,9.032c-15.053,0-26.494-6.423-32.314-17.161l0,0c-0.602-1.104-1.104-2.308-1.606-3.412
	c-0.201-0.502-0.401-1.004-0.602-1.505c-0.201-0.502-0.301-1.004-0.502-1.505c-0.201-0.803-0.502-1.706-0.703-2.509
	c-0.502-2.308-0.803-4.717-0.903-7.226l0.401,0.1l0.401,0.1h0.1c1.305,0.301,3.211,2.208,3.914,4.315
	c0.401,1.204,0.903,2.409,1.505,3.613c0.201,0.502,0.502,0.903,0.703,1.305c0.301,0.401,0.502,0.903,0.803,1.305l0,0
	c2.308,3.412,5.62,6.122,9.534,6.122c0.803,0,1.405-0.602,1.505-1.305c0.803-3.914,4.516-6.222,10.036-6.222h15.053
	c5.52,0,9.132,2.308,10.036,6.222c0.1,0.401,0.301,0.803,0.703,1.004c0.401,0.201,0.803,0.301,1.204,0.201
	c3.813-1.104,6.623-2.509,9.032-6.021l0,0c0.301-0.401,0.502-0.803,0.803-1.305c0.201-0.401,0.502-0.903,0.702-1.305
	c0.502-1.104,1.104-2.208,1.606-3.613c0.803-2.007,2.609-4.014,3.914-4.315c0.201,0,0.301-0.1,0.401-0.1
	c0.201,0,0.301-0.1,0.502-0.1C636.429,461.039,636.228,463.147,635.726,465.254z"/>
<path fill="none" stroke="#00BC9B" stroke-width="1.0264" stroke-miterlimit="10" d="M636.63,455.52
	c-0.401,0.1-0.903,0.201-1.505,0.301c-2.71,0.502-5.219,3.613-6.222,6.222c-0.401,0.903-0.702,1.806-1.104,2.509
	c-0.201,0.502-0.502,1.004-0.703,1.505c-0.301,0.502-0.502,0.903-0.803,1.405c-1.706,2.509-3.512,3.613-6.122,4.516
	c-1.706-4.315-6.322-7.025-12.544-7.025h-15.053c-6.423,0-11.039,2.81-12.645,7.326c-2.509-0.502-4.516-2.509-6.122-4.917l0,0
	c-0.301-0.401-0.602-0.903-0.803-1.305c-0.301-0.502-0.502-1.004-0.803-1.505c-0.401-0.803-0.702-1.606-1.004-2.409
	c-0.903-2.609-3.412-5.72-6.122-6.322l-1.706-0.502c-0.1-1.305-0.201-2.71-0.201-4.115c0-0.602,0-1.204,0-1.706
	c0.702-0.201,1.505-0.602,2.509-1.104c0.602-0.301,1.305-0.702,2.007-1.104c0.502-0.301,1.104-0.602,1.606-1.004
	c3.813-2.509,9.032-6.724,15.655-13.648c3.914,3.412,13.046,10.939,22.58,13.949c6.824,2.107,12.946,3.211,17.863,3.713
	c0.703,0.1,1.305,0.1,1.907,0.201c0.803,0.1,1.505,0.1,2.208,0.1c1.104,0,2.107,0.1,3.011,0.1c1.806,0,3.211-0.1,4.315-0.201
	c0,0.301,0,0.602,0,0.903C636.83,452.71,636.73,454.115,636.63,455.52z"/>
<path fill="none" stroke="#00BC9B" stroke-width="1.0264" stroke-miterlimit="10" d="M638.336,468.064
	c0.903-3.512,1.405-7.326,1.405-11.34c0-0.1,0-0.301-0.1-0.401c0.201-1.606,0.301-3.312,0.301-4.917c0-0.401,0-0.803,0-1.204
	c0.301-0.1,0.602-0.1,0.903-0.201c2.91,1.806,4.817,4.917,4.817,8.53C645.561,463.046,642.551,466.86,638.336,468.064z"/>
<path fill="none" stroke="#00BC9B" stroke-width="1.0264" stroke-miterlimit="10" d="M580.029,450.803
	c-1.606,0-3.011,0.903-3.813,2.208c-0.401,0.702-0.602,1.505-0.602,2.308c0,1.505,0.702,2.81,1.806,3.613
	c0.702,0.602,1.606,0.903,2.609,0.903c2.409,0,4.416-2.007,4.416-4.516S582.538,450.803,580.029,450.803z"/>
<path fill="none" stroke="#00BC9B" stroke-width="1.0264" stroke-miterlimit="10" d="M619.971,450.803
	c-2.409,0-4.416,2.007-4.416,4.516s2.007,4.516,4.416,4.516c1.004,0,1.907-0.401,2.609-0.903c1.104-0.803,1.806-2.107,1.806-3.613
	c0-0.803-0.201-1.606-0.602-2.308C622.981,451.706,621.576,450.803,619.971,450.803z"/>
<path fill="none" stroke="#00BC9B" stroke-width="1.0264" stroke-miterlimit="10" d="M608.028,473.182
	c-0.803-0.201-1.606,0.301-1.806,1.104c0,0.201-1.004,4.115-6.222,4.115c-4.817,0-6.122-3.713-6.222-4.215
	c-0.201-0.602-0.803-1.104-1.505-1.104c-0.1,0-0.301,0-0.401,0.1c-0.803,0.201-1.305,1.104-1.104,1.907
	c0.602,2.208,3.312,6.423,9.233,6.423c6.021,0,8.631-4.215,9.233-6.523C609.433,474.186,608.831,473.383,608.028,473.182z"/>
</svg>
