<?xml version="1.0" encoding="utf-8"?>
<!-- Generator: Adobe Illustrator 21.1.0, SVG Export Plug-In . SVG Version: 6.00 Build 0)  -->
<svg version="1.1" id="Capa_1" xmlns="http://www.w3.org/2000/svg" xmlns:xlink="http://www.w3.org/1999/xlink" x="0px" y="0px"
	 viewBox="0 0 100 100" style="enable-background:new 0 0 100 100;" xml:space="preserve">
<style type="text/css">
	.st0{fill:#FFFFFF;}
</style>
<g id="XMLID_6_">
	<g>
		<path id="XMLID_80_" class="st0" d="M37.3,78.2c2.6-0.5,4.8-1.5,6.7-3c1.7-1.3,3.1-2.8,4.2-4.7c1.8-2.8,2.7-6,2.7-9.5
			c0-3.4-0.8-6.3-2.3-8.7c-1.6-2.4-3.8-4.2-6.9-5.3c2-1,3.5-2.2,4.6-3.4c1.8-2.2,2.8-5.1,2.8-8.8c0-3.5-0.9-6.6-2.7-9.1
			c-3-4.1-8.2-6.2-15.4-6.3H2v59.6h26.9C31.9,79.1,34.7,78.8,37.3,78.2z M13.9,29.8h13c2.9,0,5.2,0.3,7,0.9c2.1,0.9,3.2,2.7,3.2,5.5
			c0,2.5-0.8,4.3-2.4,5.2c-1.6,1-3.7,1.5-6.3,1.5H13.9V29.8z M13.9,68.7V52.8h14.7c2.6,0,4.5,0.4,6,1c2.5,1.2,3.8,3.3,3.8,6.4
			c0,3.7-1.3,6.1-3.9,7.4c-1.4,0.7-3.5,1-6,1H13.9z"/>
		<g id="XMLID_75_">
			<path id="XMLID_77_" class="st0" d="M61,75.1c4.5,3.6,9.7,5.4,15.5,5.4c7.1,0,12.6-2.1,16.6-6.4c2.5-2.7,4-5.4,4.3-8H85.6
				c-0.7,1.3-1.5,2.3-2.4,3c-1.6,1.3-3.8,2-6.4,2c-2.5,0-4.6-0.6-6.4-1.7c-2.9-1.8-4.4-4.9-4.6-9.3H98c0.1-3.8-0.1-6.7-0.4-8.7
				c-0.5-3.5-1.7-6.5-3.5-9.1c-2-3-4.5-5.1-7.6-6.5c-3.1-1.4-6.5-2.1-10.4-2.1c-6.5,0-11.7,2-15.8,6.1c-4,4.1-6.1,9.9-6.1,17.6
				C54.3,65.6,56.5,71.5,61,75.1z M69.2,45.8c1.6-1.7,3.9-2.5,6.9-2.5c2.7,0,5,0.8,6.8,2.4c1.8,1.6,2.9,3.9,3.1,7H66.2
				C66.6,49.8,67.6,47.5,69.2,45.8z"/>
			<rect id="XMLID_76_" x="62.4" y="22.9" class="st0" width="25.9" height="6"/>
		</g>
	</g>
</g>
</svg>
