<?xml version="1.0" encoding="utf-8"?>
<!-- Generator: Adobe Illustrator 21.1.0, SVG Export Plug-In . SVG Version: 6.00 Build 0)  -->
<svg version="1.1" id="Capa_1" xmlns="http://www.w3.org/2000/svg" xmlns:xlink="http://www.w3.org/1999/xlink" x="0px" y="0px"
	 viewBox="0 0 100 100" style="enable-background:new 0 0 100 100;" xml:space="preserve">
<style type="text/css">
	.st0{fill:url(#SVGID_1_);}
	.st1{fill:url(#SVGID_2_);}
</style>
<g>
	<linearGradient id="SVGID_1_" gradientUnits="userSpaceOnUse" x1="46.2515" y1="22.84" x2="85.6998" y2="22.84">
		<stop  offset="0" style="stop-color:#23475F"/>
		<stop  offset="1" style="stop-color:#00BC9B"/>
	</linearGradient>
	<path class="st0" d="M71.3,7.9c0.9,0.3,1.8,0.7,2.6,1.2c0.8,0.5,1.6,1.1,2.4,1.7l3.6-2.1c0.5-0.3,1-0.1,1.3,0.4l4.3,7.5
		c0.3,0.5,0.1,1-0.4,1.3l-3.6,2.1c0.1,0.3,0.1,0.7,0.2,1.1c0.1,0.6,0.1,1.2,0.1,1.9c0,0.6,0,1.2-0.1,1.9c0,0.4-0.1,0.7-0.2,1.1
		l3.6,2.1c0.5,0.3,0.6,0.9,0.4,1.3l-4.3,7.5c-0.3,0.5-0.9,0.6-1.3,0.4l-3.6-2.1c-0.7,0.6-1.5,1.2-2.4,1.7c-0.8,0.5-1.7,0.9-2.6,1.2
		V42c0,0.5-0.4,1-1,1c-2.9,0-5.8,0-8.7,0c-0.5,0-1-0.4-1-1v-4.2c-0.9-0.3-1.8-0.7-2.6-1.2c-0.8-0.5-1.6-1.1-2.4-1.7L52,37
		c-0.5,0.3-1,0.1-1.3-0.4l-4.3-7.5c-0.3-0.5-0.1-1,0.4-1.3l3.6-2.1c-0.1-0.3-0.1-0.7-0.2-1.1c-0.1-0.6-0.1-1.2-0.1-1.9
		c0-0.6,0-1.2,0.1-1.9c0-0.4,0.1-0.7,0.2-1.1l-3.6-2.1c-0.5-0.3-0.6-0.9-0.4-1.3L50.7,9C51,8.6,51.6,8.4,52,8.7l3.6,2.1
		c0.7-0.6,1.5-1.2,2.4-1.7c0.8-0.5,1.7-0.9,2.6-1.2V3.7c0-0.5,0.4-1,1-1c2.9,0,5.8,0,8.7,0c0.5,0,1,0.4,1,1V7.9L71.3,7.9z
		 M72.9,10.9c-0.9-0.5-1.9-1-2.9-1.3l-0.1,0c-0.4-0.1-0.7-0.5-0.7-0.9V8.6V4.8h-6.4v3.8v0.1c0,0.4-0.3,0.8-0.7,0.9l-0.1,0
		c-1,0.3-2,0.7-2.9,1.3c-0.9,0.5-1.8,1.2-2.6,1.9l-0.1,0c-0.3,0.3-0.8,0.3-1.1,0.1l-0.1,0L52,11.1l-3.2,5.5l3.4,1.9
		c0.4,0.2,0.5,0.6,0.5,1c-0.2,1.1-0.4,2.1-0.4,3.3c0,1.2,0.2,2.2,0.4,3.3c0.1,0.4-0.1,0.8-0.5,1l-3.4,1.9l3.2,5.5l3.4-1.9
		c0.4-0.2,0.8-0.2,1.1,0.1c0.8,0.8,1.6,1.4,2.6,2c1,0.6,2,1,3,1.3c0.4,0.1,0.7,0.5,0.7,0.9v3.9h6.4V37c0-0.4,0.3-0.8,0.7-0.9
		c1.1-0.3,2-0.7,3-1.3c1-0.6,1.8-1.2,2.6-2c0.3-0.3,0.8-0.3,1.1-0.1l3.4,1.9l3.2-5.5l-3.4-1.9c-0.4-0.2-0.6-0.6-0.5-1
		c0.1-0.5,0.2-1.1,0.3-1.7c0.1-0.5,0.1-1.1,0.1-1.6c0-1.2-0.2-2.2-0.4-3.3c-0.1-0.4,0.1-0.8,0.5-1l3.4-1.9L80,11.1L76.7,13l-0.1,0
		c-0.4,0.2-0.8,0.2-1.1-0.1l-0.1,0C74.7,12.1,73.8,11.5,72.9,10.9L72.9,10.9z M66,15.4c2,0,3.9,0.8,5.2,2.2c1.3,1.3,2.2,3.2,2.2,5.2
		c0,2-0.8,3.9-2.2,5.2c-1.3,1.3-3.2,2.2-5.2,2.2c-2,0-3.9-0.8-5.2-2.2c-1.3-1.3-2.2-3.2-2.2-5.2c0-2,0.8-3.9,2.2-5.2
		C62.1,16.3,63.9,15.4,66,15.4L66,15.4z M69.7,19.1c-1-1-2.3-1.5-3.7-1.5c-1.5,0-2.8,0.6-3.7,1.6c-1,1-1.6,2.3-1.6,3.7
		c0,1.5,0.6,2.8,1.6,3.7c1,1,2.3,1.6,3.7,1.6c1.5,0,2.8-0.6,3.7-1.6c1-1,1.6-2.3,1.6-3.7C71.3,21.4,70.7,20.1,69.7,19.1L69.7,19.1z"
		/>
	<linearGradient id="SVGID_2_" gradientUnits="userSpaceOnUse" x1="2" y1="59.3936" x2="98" y2="59.3936">
		<stop  offset="0" style="stop-color:#23475F"/>
		<stop  offset="1" style="stop-color:#00BC9B"/>
	</linearGradient>
	<path class="st1" d="M42.9,26.6H12.1v55.6h75.8V26.5l0.6,0c-1.3,0-2.3-1-2.3-2.3v-0.5c0-1.3,1-2.3,2.3-2.3l2.2,0
		c1.3,0,2.3,1,2.3,2.3c0,20.4,0,40.7,0,61.1c0,1.3-1,2.3-2.3,2.3c-27.1,0-54.2,0-81.3,0c-1.3,0-2.3-1-2.3-2.3c0-20.4,0-40.7,0-61.1
		c0-1.3,1-2.3,2.3-2.3h33.6c1.3,0,2.3,1,2.3,2.3v0.5C45.2,25.5,44.2,26.6,42.9,26.6L42.9,26.6z M4.3,92.2h91.4c1.3,0,2.3,1,2.3,2.3
		V95c0,1.3-1,2.3-2.3,2.3H4.3C3,97.3,2,96.3,2,95v-0.5C2,93.3,3,92.2,4.3,92.2L4.3,92.2z"/>
</g>
</svg>
