<?xml version="1.0" encoding="utf-8"?>
<!-- Generator: Adobe Illustrator 21.1.0, SVG Export Plug-In . SVG Version: 6.00 Build 0)  -->
<svg version="1.1" id="Capa_1" xmlns="http://www.w3.org/2000/svg" xmlns:xlink="http://www.w3.org/1999/xlink" x="0px" y="0px"
	 viewBox="0 0 100 100" style="enable-background:new 0 0 100 100;" xml:space="preserve">
<style type="text/css">
	.st0{fill:url(#SVGID_1_);}
</style>
<linearGradient id="SVGID_1_" gradientUnits="userSpaceOnUse" x1="22.9582" y1="50" x2="77.0418" y2="50">
	<stop  offset="0" style="stop-color:#23475F"/>
	<stop  offset="1" style="stop-color:#00BC9B"/>
</linearGradient>
<path class="st0" d="M76.8,24.6L63.7,3C63.2,2,62,1.7,61,2.3c-0.5,0.3-0.8,0.7-0.9,1.2s0,1,0.2,1.5l12.3,20.5l-6.2,7.9l-5.3-2
	c-0.8-0.3-1.7-0.1-2.2,0.5c-0.5,0.6-0.7,1.5-0.3,2.2l2.9,5.5l-9,11.5l-3.4-1.3c-0.8-0.3-1.7-0.1-2.2,0.5c-0.5,0.6-0.7,1.5-0.3,2.2
	l1.9,3.6l-14.8,19L46.2,22c0.2-1.1-0.4-2.1-1.5-2.4c-1.1-0.2-2.1,0.4-2.4,1.5l-10.4,45L32,34c0-1.1-0.9-2-2-2c-1.1,0-2,0.9-2,2
	l0,27.8L27.6,60c-0.2-1.1-1.2-1.8-2.3-1.6c-0.5,0.1-1,0.4-1.3,0.8c-0.3,0.4-0.4,1-0.3,1.5l4.2,22.7l-4.8,11.9c-0.2,0.5-0.2,1,0,1.5
	c0.2,0.5,0.6,0.9,1.1,1.1c0.2,0.1,0.5,0.1,0.7,0.1c0.8,0,1.5-0.5,1.8-1.2l4.9-12.2l20.9-26.9c0.5-0.6,0.5-1.5,0.2-2.1l-0.1-0.1
	c0.8,0.2,1.6,0,2.2-0.7l10.7-13.7c0.5-0.6,0.6-1.5,0.2-2.1l-1-2l1.7,0.7c0.8,0.3,1.7,0.1,2.3-0.6l7.9-10.1
	C77.1,26.2,77.2,25.3,76.8,24.6z"/>
</svg>
