<?xml version="1.0" encoding="utf-8"?>
<!-- Generator: Adobe Illustrator 21.1.0, SVG Export Plug-In . SVG Version: 6.00 Build 0)  -->
<svg version="1.1" id="Capa_1" xmlns="http://www.w3.org/2000/svg" xmlns:xlink="http://www.w3.org/1999/xlink" x="0px" y="0px"
	 viewBox="0 0 100 100" style="enable-background:new 0 0 100 100;" xml:space="preserve">
<style type="text/css">
	.st0{fill:#FFFFFF;}
</style>
<path class="st0" d="M98.4,54.4c-2.6,23-19.2,39.5-39.4,43.2c-8.9,1.6-17.5,0.9-26-2.1c-2.9-1-5.5-2.6-7.5-5
	c-3.8-4.5-4.1-9.4-0.9-14.6c0.7-1.1,0.8-1.9,0.4-3.2c-1.2-3.6-0.8-7.4-0.1-11C27.7,45.6,35.7,32,46,19.8c3.8-4.5,9.1-6,15-5
	c1.1,0.2,1.5,0.6,1.6,1.7c0.1,5.6-1.7,10.7-4.5,15.5c-0.5,0.9-1.3,0.9-2.1,0.9c-3.9-0.1-6.1,2.1-7.8,5.3c-2.8,5.1-6,10-7.5,15.8
	c-1,3.6-1.7,7.1,1.6,10.1c0.5,0.5,0.3,1,0.1,1.6c-2.1,4.9-4.8,9.4-9.1,12.7c-1.3,1-2.4,1.4-3.6,0c-1.1-1.3-1.7-0.7-2.3,0.5
	c-1.4,2.8-0.9,6.3,1.5,8.9c3.1,3.5,7.4,4.8,11.8,5.7c19.2,4,39.9-5.6,48.8-23C101.1,47.1,90.1,12.5,58,6.9
	c-20.1-3.5-38.6,5.2-47.1,23.2c-6.7,14.1-6.4,28.5,1.5,42.4c0.5,0.9,1.1,1.8,1.7,2.7c0.7,1.1,0.5,2.1-0.5,2.8
	c-1,0.7-1.9,0.3-2.6-0.5c-2.2-2.6-4.1-5.4-5.4-8.5C-6.9,40.4,11,6.3,42.6,2.1c31.1-4.1,51.2,16.1,55.5,41c0.1,0.8,0.5,1.6,0.3,2.4
	C98.1,48.5,98.1,51.4,98.4,54.4z"/>
</svg>
