<?xml version="1.0" encoding="utf-8"?>
<!-- Generator: Adobe Illustrator 21.1.0, SVG Export Plug-In . SVG Version: 6.00 Build 0)  -->
<svg version="1.1" id="Capa_1" xmlns="http://www.w3.org/2000/svg" xmlns:xlink="http://www.w3.org/1999/xlink" x="0px" y="0px"
	 viewBox="0 0 100 100" style="enable-background:new 0 0 100 100;" xml:space="preserve">
<style type="text/css">
	.st0{fill:#23475F;}
	.st1{fill:#00BC9B;}
</style>
<g>
	<g>
		<g>
			<path class="st0" d="M29.6,84.4c0,0-0.1,0-0.1-0.1c-0.2-0.2-0.3-0.5-0.1-0.8l21.1-27.1L48,52c-0.1-0.2-0.1-0.5,0.1-0.6
				c0.2-0.2,0.4-0.2,0.6-0.1l4.5,1.7l10.3-13.2l-3.3-6.4c-0.1-0.2-0.1-0.5,0.1-0.6c0.2-0.2,0.4-0.2,0.6-0.1l6.3,2.4l7.5-9.6
				L61.7,3.8c-0.2-0.3-0.1-0.6,0.2-0.8c0.3-0.2,0.6-0.1,0.8,0.2l13.1,21.9c0.1,0.2,0.1,0.4,0,0.6l-8,10.2c-0.2,0.2-0.4,0.3-0.6,0.2
				l-5.3-2l2.8,5.4c0.1,0.2,0.1,0.4-0.1,0.6L53.8,53.9c-0.2,0.2-0.4,0.3-0.6,0.2l-3.5-1.3l1.8,3.5c0.1,0.2,0.1,0.4-0.1,0.6
				L30.2,84.3C30,84.5,29.8,84.5,29.6,84.4z"/>
		</g>
	</g>
	<g>
		<path class="st1" d="M30.6,81.8l3.6-32.3l0.4-3.5l1.8-16.4l0.5-4.9l1.2-11.3c0.1-0.5,0.4-0.9,0.9-1l21-5.9
			c0.4-0.1,0.8,0.3,0.6,0.7L30.6,81.8z"/>
	</g>
	<g>
		<g>
			<path class="st0" d="M29.6,84.4c-0.2-0.1-0.4-0.4-0.3-0.6l14.5-62.6c0.1-0.3,0.4-0.5,0.7-0.4c0.3,0.1,0.5,0.4,0.4,0.7L30.3,84
				C30.2,84.3,29.9,84.5,29.6,84.4C29.6,84.4,29.6,84.4,29.6,84.4z"/>
		</g>
	</g>
	<g>
		<g>
			<path class="st0" d="M29.6,84.4c-0.2-0.1-0.3-0.3-0.3-0.5l0-50.1c0-0.3,0.2-0.6,0.6-0.6c0.3,0,0.6,0.2,0.6,0.6l0,50.1
				c0,0.3-0.2,0.6-0.6,0.6C29.7,84.5,29.6,84.5,29.6,84.4z"/>
		</g>
	</g>
	<g>
		<g>
			<path class="st0" d="M29.6,84.4c-0.2-0.1-0.3-0.2-0.3-0.4l-4.3-23.5c-0.1-0.3,0.1-0.6,0.4-0.6c0.3-0.1,0.6,0.1,0.6,0.4l4.3,23.5
				c0.1,0.3-0.1,0.6-0.4,0.6C29.8,84.5,29.6,84.5,29.6,84.4z"/>
		</g>
	</g>
	<g>
		<g>
			<path class="st0" d="M24.5,97c-0.3-0.1-0.4-0.4-0.3-0.7l5.1-12.5c0.1-0.3,0.4-0.4,0.7-0.3c0.3,0.1,0.4,0.4,0.3,0.7l-5.1,12.5
				C25.1,96.9,24.8,97.1,24.5,97z"/>
		</g>
	</g>
</g>
</svg>
